<svg xmlns="http://www.w3.org/2000/svg" viewBox="0 0 32 32" fill="none" role="img" aria-label="Ghi Chú Thần Thông">
  <rect width="32" height="32" rx="8" fill="#0a0a0a"/>
  <path
    d="M7 22.5V9.8a1.6 1.6 0 0 1 1.6-1.6h9.2l4.2 4.2V22.5a1.6 1.6 0 0 1-1.6 1.6H8.6a1.6 1.6 0 0 1-1.6-1.6Z"
    fill="#141414"
    stroke="#f97316"
    stroke-width="1.3"
    stroke-linejoin="round"
  />
  <path d="M17.8 8.2V12h4.2" stroke="#f97316" stroke-width="1.3" stroke-linecap="round" stroke-linejoin="round"/>
  <path d="M10 14.5h8.5M10 17.5h6.5" stroke="#fb923c" stroke-width="1.2" stroke-linecap="round" opacity="0.75"/>
  <path d="M10 20.8h4.8" stroke="#f97316" stroke-width="1.4" stroke-linecap="round"/>
  <path
    d="M21.2 19.2l5.8-5.8 1.4 1.4-5.8 5.8-2 .4.4-2Z"
    fill="#f97316"
    stroke="#fb923c"
    stroke-width="0.6"
    stroke-linejoin="round"
  />
  <path d="M26.2 12.8l1.5 1.5" stroke="#fb923c" stroke-width="1.5" stroke-linecap="round"/>
  <path
    d="M24.8 11.2l.55 1.25 1.25.55-1.25.55-.55 1.25-.55-1.25-1.25-.55 1.25-.55.55-1.25Z"
    fill="#fbbf24"
  />
  <circle cx="27.6" cy="10.8" r="0.7" fill="#fb923c"/>
  <circle cx="12.2" cy="20.8" r="0.55" fill="#fbbf24" opacity="0.9"/>
</svg>
