<?xml version="1.0" encoding="UTF-8"?>
<svg xmlns="http://www.w3.org/2000/svg" width="1200" height="630" viewBox="0 0 1200 630" fill="none">
  <rect width="1200" height="630" fill="#0a0a0a"/>
  <rect x="80" y="80" width="1040" height="470" rx="24" fill="#141414" stroke="#f97316" stroke-width="3"/>
  <text x="120" y="220" fill="#f97316" font-family="system-ui, -apple-system, sans-serif" font-size="64" font-weight="700">V¶ H?n Ghi Ch·</text>
  <text x="120" y="300" fill="#f5f5f5" font-family="system-ui, -apple-system, sans-serif" font-size="36">L?u t?p phim, ch??ng truy?n, link hay</text>
  <text x="120" y="370" fill="#a3a3a3" font-family="system-ui, -apple-system, sans-serif" font-size="28">Ghi ch· cß nhŌn ? t?m ki?m t? nhi?n</text>
  <path d="M920 180h72l36 36v144a14 14 0 0 1-14 14H920a14 14 0 0 1-14-14V194a14 14 0 0 1 14-14Z" fill="#141414" stroke="#f97316" stroke-width="4"/>
  <path d="M974 180v36h36" stroke="#f97316" stroke-width="4"/>
  <path d="M948 260h72M948 300h56M948 340h40" stroke="#fb923c" stroke-width="5" stroke-linecap="round"/>
  <path d="M1010 360l48-48 12 12-48 48-16 4 4-16Z" fill="#f97316"/>
</svg>
